<?xml version="1.0" standalone="no"?>
<!DOCTYPE svg PUBLIC "-//W3C//DTD SVG 20010904//EN"
 "http://www.w3.org/TR/2001/REC-SVG-20010904/DTD/svg10.dtd">
<svg version="1.0" xmlns="http://www.w3.org/2000/svg"
 width="256.000000pt" height="256.000000pt" viewBox="0 0 256.000000 256.000000"
 preserveAspectRatio="xMidYMid meet">
<metadata>
Created by potrace 1.14, written by Peter Selinger 2001-2017
</metadata>
<g transform="translate(0.000000,256.000000) scale(0.100000,-0.100000)"
fill="#000000" stroke="none">
<path d="M0 1280 l0 -1280 1280 0 1280 0 0 1280 0 1280 -1280 0 -1280 0 0
-1280z m1978 814 c144 -60 178 -258 61 -359 l-34 -29 32 -65 c54 -109 68 -186
68 -361 0 -170 -14 -242 -65 -356 -85 -190 -258 -348 -459 -422 -103 -37 -201
-52 -347 -52 l-134 0 0 239 0 238 108 6 c275 15 397 125 396 357 0 70 -5 95
-25 140 -64 137 -184 190 -431 190 l-128 0 0 -585 0 -585 -250 0 -250 0 0 821
0 821 428 -5 c467 -4 522 -10 675 -72 l68 -27 35 40 c64 75 166 102 252 66z"/>
</g>
</svg>
